<svg width="263" height="76" viewBox="0 0 263 76" fill="none" xmlns="http://www.w3.org/2000/svg">
<path d="M103.552 48.9249C100.84 48.9249 98.464 48.3369 96.424 47.1609C94.408 45.9849 92.836 44.3649 91.708 42.3009C90.58 40.2369 90.016 37.8969 90.016 35.2809V34.4889C90.016 32.8089 90.304 31.1889 90.88 29.6289C91.48 28.0449 92.332 26.6289 93.436 25.3809C94.564 24.1089 95.932 23.1129 97.54 22.3929C99.148 21.6489 100.96 21.2769 102.976 21.2769C105.16 21.2769 107.104 21.6969 108.808 22.5369C110.512 23.3529 111.88 24.5049 112.912 25.9929C113.944 27.4569 114.544 29.1609 114.712 31.1049H111.112C110.944 29.6409 110.464 28.4289 109.672 27.4689C108.88 26.4849 107.896 25.7529 106.72 25.2729C105.568 24.7689 104.32 24.5169 102.976 24.5169C101.152 24.5169 99.532 24.9489 98.116 25.8129C96.7 26.6769 95.596 27.8889 94.804 29.4489C94.012 30.9849 93.616 32.8089 93.616 34.9209C93.616 37.3209 94.036 39.3249 94.876 40.9329C95.74 42.5409 96.916 43.7529 98.404 44.5689C99.916 45.3609 101.632 45.7569 103.552 45.7569C105.136 45.7569 106.576 45.5049 107.872 45.0009C109.168 44.4969 110.26 43.8129 111.148 42.9489V38.4849H102.616V35.5329H116.692V38.4849H114.46V44.0289C113.284 45.5649 111.772 46.7649 109.924 47.6289C108.076 48.4929 105.952 48.9249 103.552 48.9249ZM130.086 48.9249C128.406 48.9249 126.93 48.6369 125.658 48.0609C124.386 47.4849 123.306 46.7289 122.418 45.7929C121.554 44.8329 120.894 43.7649 120.438 42.5889C120.006 41.4129 119.79 40.2129 119.79 38.9889V38.3409C119.79 37.1169 120.018 35.9169 120.474 34.7409C120.93 33.5409 121.602 32.4729 122.49 31.5369C123.378 30.5769 124.458 29.8209 125.73 29.2689C127.002 28.6929 128.454 28.4049 130.086 28.4049C131.718 28.4049 133.17 28.6929 134.442 29.2689C135.714 29.8209 136.794 30.5769 137.682 31.5369C138.57 32.4729 139.242 33.5409 139.698 34.7409C140.154 35.9169 140.382 37.1169 140.382 38.3409V38.9889C140.382 40.2129 140.154 41.4129 139.698 42.5889C139.266 43.7649 138.606 44.8329 137.718 45.7929C136.854 46.7289 135.786 47.4849 134.514 48.0609C133.242 48.6369 131.766 48.9249 130.086 48.9249ZM130.086 45.8289C131.526 45.8289 132.75 45.5169 133.758 44.8929C134.79 44.2449 135.57 43.3809 136.098 42.3009C136.65 41.2209 136.926 40.0089 136.926 38.6649C136.926 37.2969 136.65 36.0729 136.098 34.9929C135.546 33.9129 134.754 33.0609 133.722 32.4369C132.714 31.8129 131.502 31.5009 130.086 31.5009C128.694 31.5009 127.482 31.8129 126.45 32.4369C125.418 33.0609 124.626 33.9129 124.074 34.9929C123.522 36.0729 123.246 37.2969 123.246 38.6649C123.246 40.0089 123.51 41.2209 124.038 42.3009C124.59 43.3809 125.37 44.2449 126.378 44.8929C127.41 45.5169 128.646 45.8289 130.086 45.8289ZM152.83 55.7649C151.03 55.7649 149.278 55.6329 147.574 55.3689V52.4529C148.438 52.5729 149.338 52.6689 150.274 52.7409C151.234 52.8369 152.134 52.8849 152.974 52.8849C155.614 52.8849 157.462 52.3449 158.518 51.2649C159.598 50.2089 160.138 48.5049 160.138 46.1529V44.4249C159.418 45.7689 158.446 46.7769 157.222 47.4489C156.022 48.0969 154.69 48.4209 153.226 48.4209C151.426 48.4209 149.842 47.9769 148.474 47.0889C147.106 46.1769 146.038 44.9769 145.27 43.4889C144.502 42.0009 144.118 40.3689 144.118 38.5929V37.9449C144.118 36.1449 144.514 34.5249 145.306 33.0849C146.098 31.6449 147.19 30.5049 148.582 29.6649C149.974 28.8249 151.582 28.4049 153.406 28.4049C155.086 28.4049 156.55 28.7769 157.798 29.5209C159.07 30.2649 160.042 31.3449 160.714 32.7609V29.0529H163.45V46.0089C163.45 48.3129 163.09 50.1729 162.37 51.5889C161.674 53.0289 160.546 54.0849 158.986 54.7569C157.45 55.4289 155.398 55.7649 152.83 55.7649ZM153.874 45.2529C155.026 45.2529 156.07 45.0009 157.006 44.4969C157.966 43.9929 158.722 43.2729 159.274 42.3369C159.85 41.3769 160.138 40.2369 160.138 38.9169V37.2609C160.138 35.9649 159.838 34.8729 159.238 33.9849C158.662 33.0969 157.906 32.4249 156.97 31.9689C156.034 31.5129 155.014 31.2849 153.91 31.2849C152.014 31.2849 150.478 31.9209 149.302 33.1929C148.15 34.4649 147.574 36.1569 147.574 38.2689C147.574 40.4049 148.162 42.1089 149.338 43.3809C150.538 44.6289 152.05 45.2529 153.874 45.2529ZM169.851 48.2769V29.0529H172.587V34.8129C172.875 32.7489 173.631 31.2369 174.855 30.2769C176.079 29.3169 177.747 28.8369 179.859 28.8369H180.507V31.9329H179.283C177.363 31.9329 175.887 32.4489 174.855 33.4809C173.823 34.4889 173.307 35.9529 173.307 37.8729V48.2769H169.851ZM192.578 48.9249C190.898 48.9249 189.446 48.6369 188.222 48.0609C186.998 47.4849 186.002 46.7289 185.234 45.7929C184.466 44.8329 183.89 43.7649 183.506 42.5889C183.146 41.4129 182.966 40.2129 182.966 38.9889V38.3409C182.966 37.0929 183.146 35.8809 183.506 34.7049C183.89 33.5289 184.466 32.4729 185.234 31.5369C186.002 30.5769 186.974 29.8209 188.15 29.2689C189.35 28.6929 190.754 28.4049 192.362 28.4049C194.45 28.4049 196.166 28.8609 197.51 29.7729C198.878 30.6609 199.886 31.8129 200.534 33.2289C201.206 34.6449 201.542 36.1569 201.542 37.7649V39.3129H186.278C186.398 41.2089 186.962 42.7809 187.97 44.0289C188.978 45.2769 190.514 45.9009 192.578 45.9009C194.09 45.9009 195.314 45.5649 196.25 44.8929C197.21 44.2209 197.786 43.4409 197.978 42.5529H201.218C200.81 44.5449 199.838 46.1049 198.302 47.2329C196.766 48.3609 194.858 48.9249 192.578 48.9249ZM192.362 31.4289C190.634 31.4289 189.278 31.9209 188.294 32.9049C187.31 33.8649 186.686 35.1369 186.422 36.7209H198.158C197.942 35.0889 197.354 33.8049 196.394 32.8689C195.434 31.9089 194.09 31.4289 192.362 31.4289ZM214.621 48.9249C212.941 48.9249 211.489 48.6369 210.265 48.0609C209.041 47.4849 208.045 46.7289 207.277 45.7929C206.509 44.8329 205.933 43.7649 205.549 42.5889C205.189 41.4129 205.009 40.2129 205.009 38.9889V38.3409C205.009 37.0929 205.189 35.8809 205.549 34.7049C205.933 33.5289 206.509 32.4729 207.277 31.5369C208.045 30.5769 209.017 29.8209 210.193 29.2689C211.393 28.6929 212.797 28.4049 214.405 28.4049C216.493 28.4049 218.209 28.8609 219.553 29.7729C220.921 30.6609 221.929 31.8129 222.577 33.2289C223.249 34.6449 223.585 36.1569 223.585 37.7649V39.3129H208.321C208.441 41.2089 209.005 42.7809 210.013 44.0289C211.021 45.2769 212.557 45.9009 214.621 45.9009C216.133 45.9009 217.357 45.5649 218.293 44.8929C219.253 44.2209 219.829 43.4409 220.021 42.5529H223.261C222.853 44.5449 221.881 46.1049 220.345 47.2329C218.809 48.3609 216.901 48.9249 214.621 48.9249ZM214.405 31.4289C212.677 31.4289 211.321 31.9209 210.337 32.9049C209.353 33.8649 208.729 35.1369 208.465 36.7209H220.201C219.985 35.0889 219.397 33.8049 218.437 32.8689C217.477 31.9089 216.133 31.4289 214.405 31.4289ZM228.492 48.2769V29.0529H231.228V33.5169C231.66 31.8849 232.428 30.6369 233.532 29.7729C234.66 28.9089 236.124 28.4769 237.924 28.4769H238.068C240.492 28.4769 242.28 29.2329 243.432 30.7449C244.608 32.2569 245.196 34.4409 245.196 37.2969V48.2769H241.74V36.5769C241.74 35.0889 241.32 33.9009 240.48 33.0129C239.64 32.1009 238.488 31.6449 237.024 31.6449C235.512 31.6449 234.288 32.1129 233.352 33.0489C232.416 33.9849 231.948 35.2329 231.948 36.7929V48.2769H228.492Z" fill="#81B214"/>
<circle cx="251.5" cy="45.7769" r="2.5" fill="#206A5D"/>
<path d="M39.0172 45.379H36.5C36.5 38.2184 42.135 32.4136 49.0862 32.4136H51.6034C51.6034 39.5742 45.9684 45.379 39.0172 45.379Z" fill="#6A9923"/>
<path d="M39.0172 27.2277H36.5C36.5 20.067 42.135 14.2622 49.0862 14.2622H51.6034C51.6034 21.4229 45.9684 27.2277 39.0172 27.2277Z" fill="#6A9923"/>
<path d="M36.5005 9.07581H39.0177C43.8836 9.07581 47.8281 5.01244 47.8281 0H45.3108C40.445 0 36.5005 4.06337 36.5005 9.07581Z" fill="#6A9923"/>
<path d="M21.4733 48.9574L21.3965 48.912L12.5698 38.8094C11.2601 37.3148 9.0221 37.197 7.57107 38.5462C7.56462 38.5522 7.55817 38.5583 7.55172 38.5643V19.6685C7.59687 17.543 6.0343 15.7456 3.9785 15.5584C1.89611 15.4432 0.117367 17.0887 0.00550684 19.2337C0.00173099 19.305 3.82557e-07 19.3766 3.82557e-07 19.4481V43.9878C-0.0004716 45.7506 0.435798 47.4842 1.26743 49.0248L12.5862 70.0133V75.1995H30.2069V64.4706C30.2064 58.0605 26.8741 52.1414 21.4733 48.9574Z" fill="#F2BB80"/>
<path d="M36.4998 58.3447C35.8048 58.3447 35.2412 57.7642 35.2412 57.0481V7.77945C35.2412 7.06344 35.8048 6.48291 36.4998 6.48291C37.1949 6.48291 37.7585 7.06344 37.7585 7.77945V57.0481C37.7585 57.7642 37.1949 58.3447 36.4998 58.3447Z" fill="#88B337"/>
<path d="M21.3965 32.4136H23.9137C30.8649 32.4136 36.4999 38.2184 36.4999 45.379H33.9827C27.0315 45.379 21.3965 39.5742 21.3965 32.4136Z" fill="#88B337"/>
<path d="M21.3965 14.2622H23.9137C30.8649 14.2622 36.4999 20.067 36.4999 27.2277H33.9827C27.0315 27.2277 21.3965 21.4229 21.3965 14.2622Z" fill="#88B337"/>
<path d="M36.4999 9.07581H33.9827C29.1169 9.07581 25.1724 5.01244 25.1724 0H27.6896C32.5554 0 36.4999 4.06337 36.4999 9.07581Z" fill="#88B337"/>
<path d="M17.5273 56.6913C17.1727 56.6915 16.8346 56.5375 16.596 56.2674L6.28408 44.5829C4.55584 42.6289 4.62522 39.6202 6.44141 37.7527C6.9414 37.2552 7.7381 37.2694 8.2211 37.7845C8.6923 38.2869 8.6923 39.0836 8.2211 39.586C7.35659 40.4758 7.32386 41.9085 8.14684 42.8391L18.4575 54.5222C18.9254 55.0519 18.8877 55.8719 18.3736 56.3538C18.142 56.5708 17.8404 56.6912 17.5273 56.6913Z" fill="#E8A16D"/>
<path d="M42.793 64.4706V75.1995H60.4136V70.0133L71.7324 49.0248C72.564 47.4842 73.0003 45.7506 72.9998 43.9878V19.6685C73.045 17.543 71.4824 15.7456 69.4266 15.5584C67.3442 15.4432 65.5655 17.0887 65.4536 19.2337C65.4499 19.305 65.4481 19.3766 65.4481 19.4481V38.5643C64.007 37.2041 61.7682 37.3047 60.4476 38.7894C60.4416 38.7961 60.4358 38.8027 60.43 38.8094L51.6033 48.912L51.5265 48.9574C46.1258 52.1414 42.7934 58.0605 42.793 64.4706Z" fill="#F2BB80"/>
<path d="M55.4727 56.6913C55.8273 56.6915 56.1654 56.5375 56.4041 56.2674L66.7159 44.5829C68.4442 42.6289 68.3748 39.6202 66.5586 37.7527C66.0586 37.2552 65.2619 37.2694 64.7789 37.7845C64.3077 38.2869 64.3077 39.0836 64.7789 39.586C65.6434 40.4758 65.6762 41.9085 64.8532 42.8391L54.5426 54.5222C54.0747 55.0519 54.1123 55.8719 54.6264 56.3538C54.858 56.5708 55.1596 56.6912 55.4727 56.6913Z" fill="#E8A16D"/>
</svg>
