<svg width="219" height="60" viewBox="0 0 219 60" fill="none" xmlns="http://www.w3.org/2000/svg">
<circle cx="216.5" cy="44.5" r="2.5" fill="#206A5D"/>
<path d="M20.736 46.864C17.12 46.864 13.952 46.08 11.232 44.512C8.544 42.944 6.448 40.784 4.944 38.032C3.44 35.28 2.688 32.16 2.688 28.672V27.616C2.688 25.376 3.072 23.216 3.84 21.136C4.64 19.024 5.776 17.136 7.248 15.472C8.752 13.776 10.576 12.448 12.72 11.488C14.864 10.496 17.28 10 19.968 10C22.88 10 25.472 10.56 27.744 11.68C30.016 12.768 31.84 14.304 33.216 16.288C34.592 18.24 35.392 20.512 35.616 23.104H30.816C30.592 21.152 29.952 19.536 28.896 18.256C27.84 16.944 26.528 15.968 24.96 15.328C23.424 14.656 21.76 14.32 19.968 14.32C17.536 14.32 15.376 14.896 13.488 16.048C11.6 17.2 10.128 18.816 9.072 20.896C8.016 22.944 7.488 25.376 7.488 28.192C7.488 31.392 8.048 34.064 9.168 36.208C10.32 38.352 11.888 39.968 13.872 41.056C15.888 42.112 18.176 42.64 20.736 42.64C22.848 42.64 24.768 42.304 26.496 41.632C28.224 40.96 29.68 40.048 30.864 38.896V32.944H19.488V29.008H38.256V32.944H35.28V40.336C33.712 42.384 31.696 43.984 29.232 45.136C26.768 46.288 23.936 46.864 20.736 46.864ZM56.1146 46.864C53.8746 46.864 51.9066 46.48 50.2106 45.712C48.5146 44.944 47.0746 43.936 45.8906 42.688C44.7386 41.408 43.8586 39.984 43.2506 38.416C42.6746 36.848 42.3866 35.248 42.3866 33.616V32.752C42.3866 31.12 42.6906 29.52 43.2986 27.952C43.9066 26.352 44.8026 24.928 45.9866 23.68C47.1706 22.4 48.6106 21.392 50.3066 20.656C52.0026 19.888 53.9386 19.504 56.1146 19.504C58.2906 19.504 60.2266 19.888 61.9226 20.656C63.6186 21.392 65.0586 22.4 66.2426 23.68C67.4266 24.928 68.3226 26.352 68.9306 27.952C69.5386 29.52 69.8426 31.12 69.8426 32.752V33.616C69.8426 35.248 69.5386 36.848 68.9306 38.416C68.3546 39.984 67.4746 41.408 66.2906 42.688C65.1386 43.936 63.7146 44.944 62.0186 45.712C60.3226 46.48 58.3546 46.864 56.1146 46.864ZM56.1146 42.736C58.0346 42.736 59.6666 42.32 61.0106 41.488C62.3866 40.624 63.4266 39.472 64.1306 38.032C64.8666 36.592 65.2346 34.976 65.2346 33.184C65.2346 31.36 64.8666 29.728 64.1306 28.288C63.3946 26.848 62.3386 25.712 60.9626 24.88C59.6186 24.048 58.0026 23.632 56.1146 23.632C54.2586 23.632 52.6426 24.048 51.2666 24.88C49.8906 25.712 48.8346 26.848 48.0986 28.288C47.3626 29.728 46.9946 31.36 46.9946 33.184C46.9946 34.976 47.3466 36.592 48.0506 38.032C48.7866 39.472 49.8266 40.624 51.1706 41.488C52.5466 42.32 54.1946 42.736 56.1146 42.736ZM86.4401 55.984C84.0401 55.984 81.7041 55.808 79.4321 55.456V51.568C80.5841 51.728 81.7841 51.856 83.0321 51.952C84.3121 52.08 85.5121 52.144 86.6321 52.144C90.1521 52.144 92.6161 51.424 94.0241 49.984C95.4641 48.576 96.1841 46.304 96.1841 43.168V40.864C95.2241 42.656 93.9281 44 92.2961 44.896C90.6961 45.76 88.9201 46.192 86.9681 46.192C84.5681 46.192 82.4561 45.6 80.6321 44.416C78.8081 43.2 77.3841 41.6 76.3601 39.616C75.3361 37.632 74.8241 35.456 74.8241 33.088V32.224C74.8241 29.824 75.3521 27.664 76.4081 25.744C77.4641 23.824 78.9201 22.304 80.7761 21.184C82.6321 20.064 84.7761 19.504 87.2081 19.504C89.4481 19.504 91.4001 20 93.0641 20.992C94.7601 21.984 96.0561 23.424 96.9521 25.312V20.368H100.6V42.976C100.6 46.048 100.12 48.528 99.1601 50.416C98.2321 52.336 96.7281 53.744 94.6481 54.64C92.6001 55.536 89.8641 55.984 86.4401 55.984ZM87.8321 41.968C89.3681 41.968 90.7601 41.632 92.0081 40.96C93.2881 40.288 94.2961 39.328 95.0321 38.08C95.8001 36.8 96.1841 35.28 96.1841 33.52V31.312C96.1841 29.584 95.7841 28.128 94.9841 26.944C94.2161 25.76 93.2081 24.864 91.9601 24.256C90.7121 23.648 89.3521 23.344 87.8801 23.344C85.3521 23.344 83.3041 24.192 81.7361 25.888C80.2001 27.584 79.4321 29.84 79.4321 32.656C79.4321 35.504 80.2161 37.776 81.7841 39.472C83.3841 41.136 85.4001 41.968 87.8321 41.968ZM109.135 46V20.368H112.783V28.048C113.167 25.296 114.175 23.28 115.807 22C117.439 20.72 119.663 20.08 122.479 20.08H123.343V24.208H121.711C119.151 24.208 117.183 24.896 115.807 26.272C114.431 27.616 113.743 29.568 113.743 32.128V46H109.135ZM139.437 46.864C137.197 46.864 135.261 46.48 133.629 45.712C131.997 44.944 130.669 43.936 129.645 42.688C128.621 41.408 127.853 39.984 127.341 38.416C126.861 36.848 126.621 35.248 126.621 33.616V32.752C126.621 31.088 126.861 29.472 127.341 27.904C127.853 26.336 128.621 24.928 129.645 23.68C130.669 22.4 131.965 21.392 133.533 20.656C135.133 19.888 137.005 19.504 139.149 19.504C141.933 19.504 144.221 20.112 146.013 21.328C147.837 22.512 149.181 24.048 150.045 25.936C150.941 27.824 151.389 29.84 151.389 31.984V34.048H131.037C131.197 36.576 131.949 38.672 133.293 40.336C134.637 42 136.685 42.832 139.437 42.832C141.453 42.832 143.085 42.384 144.333 41.488C145.613 40.592 146.381 39.552 146.637 38.368H150.957C150.413 41.024 149.117 43.104 147.069 44.608C145.021 46.112 142.477 46.864 139.437 46.864ZM139.149 23.536C136.845 23.536 135.037 24.192 133.725 25.504C132.413 26.784 131.581 28.48 131.229 30.592H146.877C146.589 28.416 145.805 26.704 144.525 25.456C143.245 24.176 141.453 23.536 139.149 23.536ZM168.828 46.864C166.588 46.864 164.652 46.48 163.02 45.712C161.388 44.944 160.06 43.936 159.036 42.688C158.012 41.408 157.244 39.984 156.732 38.416C156.252 36.848 156.012 35.248 156.012 33.616V32.752C156.012 31.088 156.252 29.472 156.732 27.904C157.244 26.336 158.012 24.928 159.036 23.68C160.06 22.4 161.356 21.392 162.924 20.656C164.524 19.888 166.396 19.504 168.54 19.504C171.324 19.504 173.612 20.112 175.404 21.328C177.228 22.512 178.572 24.048 179.436 25.936C180.332 27.824 180.78 29.84 180.78 31.984V34.048H160.428C160.588 36.576 161.34 38.672 162.684 40.336C164.028 42 166.076 42.832 168.828 42.832C170.844 42.832 172.476 42.384 173.724 41.488C175.004 40.592 175.772 39.552 176.028 38.368H180.348C179.804 41.024 178.508 43.104 176.46 44.608C174.412 46.112 171.868 46.864 168.828 46.864ZM168.54 23.536C166.236 23.536 164.428 24.192 163.116 25.504C161.804 26.784 160.972 28.48 160.62 30.592H176.268C175.98 28.416 175.196 26.704 173.916 25.456C172.636 24.176 170.844 23.536 168.54 23.536ZM187.322 46V20.368H190.97V26.32C191.546 24.144 192.57 22.48 194.042 21.328C195.546 20.176 197.498 19.6 199.898 19.6H200.09C203.322 19.6 205.706 20.608 207.242 22.624C208.81 24.64 209.594 27.552 209.594 31.36V46H204.986V30.4C204.986 28.416 204.426 26.832 203.306 25.648C202.186 24.432 200.65 23.824 198.698 23.824C196.682 23.824 195.05 24.448 193.802 25.696C192.554 26.944 191.93 28.608 191.93 30.688V46H187.322Z" fill="#81B214"/>
</svg>
