<svg width="50" height="50" viewBox="0 0 50 50" fill="none" xmlns="http://www.w3.org/2000/svg">
<path d="M26.7236 30.1726H24.9995C24.9995 25.4115 28.8591 21.5519 33.6201 21.5519H35.3442C35.3442 26.313 31.4847 30.1726 26.7236 30.1726Z" fill="#6A9923"/>
<path d="M26.7236 18.1036H24.9995C24.9995 13.3424 28.8591 9.48282 33.6201 9.48282H35.3442C35.3442 14.244 31.4847 18.1036 26.7236 18.1036Z" fill="#6A9923"/>
<path d="M25 6.03463H26.7241C30.0568 6.03463 32.7585 3.33291 32.7585 0.000152588H31.0344C27.7017 0.000152588 25 2.70187 25 6.03463Z" fill="#6A9923"/>
<path d="M14.7075 32.5518L14.6549 32.5216L8.60933 25.8044C7.71226 24.8106 6.17942 24.7323 5.18558 25.6294C5.18116 25.6333 5.17674 25.6374 5.17232 25.6414V13.0776C5.20325 11.6644 4.13301 10.4693 2.72495 10.3449C1.29868 10.2683 0.0803868 11.3623 0.00377175 12.7885C0.00118559 12.8359 2.62021e-07 12.8836 2.62021e-07 12.9311V29.2475C-0.000323008 30.4196 0.298486 31.5722 0.868088 32.5966L8.62054 46.5518V50H20.6893V42.8664C20.689 38.6044 18.4066 34.6688 14.7075 32.5518Z" fill="#F2BB80"/>
<path d="M24.9997 38.7931C24.5237 38.7931 24.1377 38.4072 24.1377 37.9311V5.17243C24.1377 4.69636 24.5237 4.31036 24.9997 4.31036C25.4758 4.31036 25.8618 4.69636 25.8618 5.17243V37.9311C25.8618 38.4072 25.4758 38.7931 24.9997 38.7931Z" fill="#88B337"/>
<path d="M14.6548 21.5519H16.3789C21.1399 21.5519 24.9995 25.4115 24.9995 30.1726H23.2754C18.5143 30.1726 14.6548 26.313 14.6548 21.5519Z" fill="#88B337"/>
<path d="M14.6548 9.48282H16.3789C21.1399 9.48282 24.9995 13.3424 24.9995 18.1036H23.2754C18.5143 18.1036 14.6548 14.244 14.6548 9.48282Z" fill="#88B337"/>
<path d="M24.9998 6.03463H23.2756C19.9429 6.03463 17.2412 3.33291 17.2412 0.000152588H18.9653C22.2981 0.000152588 24.9998 2.70187 24.9998 6.03463Z" fill="#88B337"/>
<path d="M12.005 37.6943C11.7621 37.6944 11.5305 37.592 11.3671 37.4124L4.3042 29.6434C3.12049 28.3441 3.16801 26.3437 4.41196 25.102C4.75441 24.7712 5.3001 24.7807 5.63091 25.1231C5.95365 25.4572 5.95365 25.9869 5.63091 26.321C5.03879 26.9126 5.01637 27.8652 5.58005 28.4839L12.642 36.252C12.9625 36.6042 12.9368 37.1494 12.5846 37.4698C12.426 37.6141 12.2194 37.6942 12.005 37.6943Z" fill="#E8A16D"/>
<path d="M29.3101 42.8664V50H41.3789V46.5518L49.1314 32.5966C49.701 31.5722 49.9998 30.4196 49.9995 29.2475V13.0776C50.0304 11.6644 48.9602 10.4693 47.5521 10.3449C46.1258 10.2683 44.9075 11.3623 44.8309 12.7885C44.8283 12.8359 44.8271 12.8836 44.8271 12.9311V25.6414C43.8401 24.737 42.3067 24.8039 41.4022 25.7911C41.3981 25.7955 41.3941 25.7999 41.3901 25.8044L35.3445 32.5216L35.2919 32.5518C31.5928 34.6688 29.3104 38.6044 29.3101 42.8664Z" fill="#F2BB80"/>
<path d="M37.9943 37.6943C38.2372 37.6944 38.4688 37.592 38.6322 37.4124L45.6949 29.6434C46.8786 28.3441 46.8311 26.3437 45.5872 25.102C45.2447 24.7712 44.6991 24.7807 44.3683 25.1231C44.0455 25.4572 44.0455 25.9869 44.3683 26.321C44.9604 26.9126 44.9828 27.8652 44.4191 28.4839L37.3573 36.252C37.0368 36.6042 37.0626 37.1494 37.4147 37.4698C37.5733 37.6141 37.7799 37.6942 37.9943 37.6943Z" fill="#E8A16D"/>
</svg>
