<svg width="46" height="46" viewBox="0 0 46 46" fill="none" xmlns="http://www.w3.org/2000/svg">
<circle cx="22.9008" cy="22.9008" r="22.9008" fill="#BFDCAE"/>
<path d="M23.344 32.456C22 32.456 20.84 32.2 19.864 31.688C18.904 31.176 18.168 30.496 17.656 29.648C17.144 28.784 16.888 27.824 16.888 26.768H20.176C20.176 27.632 20.456 28.32 21.016 28.832C21.592 29.344 22.368 29.6 23.344 29.6C24.336 29.6 25.112 29.336 25.672 28.808C26.232 28.264 26.512 27.552 26.512 26.672C26.512 25.808 26.232 25.104 25.672 24.56C25.112 24 24.344 23.72 23.368 23.72C22.888 23.72 22.464 23.792 22.096 23.936C21.728 24.064 21.416 24.224 21.16 24.416L19.6 21.728L25.36 17.792L25.144 17.384H17.608V14.48H29.056V17.984L24.064 21.296C25.264 21.376 26.288 21.656 27.136 22.136C28 22.6 28.656 23.216 29.104 23.984C29.568 24.752 29.8 25.624 29.8 26.6V26.912C29.8 27.92 29.544 28.848 29.032 29.696C28.52 30.528 27.784 31.2 26.824 31.712C25.864 32.208 24.704 32.456 23.344 32.456Z" fill="black"/>
</svg>
