<svg width="46" height="46" viewBox="0 0 46 46" fill="none" xmlns="http://www.w3.org/2000/svg">
<circle cx="22.9008" cy="22.9008" r="22.9008" fill="#BFDCAE"/>
<path d="M16.56 31V27.64C16.56 26.536 16.832 25.64 17.376 24.952C17.92 24.264 18.856 23.632 20.184 23.056L23.16 21.736C23.896 21.416 24.456 21.008 24.84 20.512C25.24 20.016 25.44 19.384 25.44 18.616C25.44 17.768 25.184 17.096 24.672 16.6C24.176 16.088 23.464 15.832 22.536 15.832C21.608 15.832 20.888 16.096 20.376 16.624C19.88 17.136 19.632 17.84 19.632 18.736H16.344C16.344 17.664 16.568 16.696 17.016 15.832C17.48 14.952 18.168 14.256 19.08 13.744C20.008 13.232 21.16 12.976 22.536 12.976C23.896 12.976 25.032 13.224 25.944 13.72C26.872 14.216 27.568 14.88 28.032 15.712C28.496 16.544 28.728 17.456 28.728 18.448V18.76C28.728 20.088 28.36 21.192 27.624 22.072C26.888 22.936 25.808 23.68 24.384 24.304L21.408 25.624C20.832 25.864 20.432 26.12 20.208 26.392C20 26.664 19.896 27.016 19.896 27.448V28.096H28.8V31H16.56Z" fill="black"/>
</svg>
